<?xml version="1.0" encoding="UTF-8" standalone="no"?>
<svg
   xmlns:dc="http://purl.org/dc/elements/1.1/"
   xmlns:cc="http://creativecommons.org/ns#"
   xmlns:rdf="http://www.w3.org/1999/02/22-rdf-syntax-ns#"
   xmlns:svg="http://www.w3.org/2000/svg"
   xmlns="http://www.w3.org/2000/svg"
   xmlns:sodipodi="http://sodipodi.sourceforge.net/DTD/sodipodi-0.dtd"
   xmlns:inkscape="http://www.inkscape.org/namespaces/inkscape"
   width="210mm"
   height="297mm"
   viewBox="0 0 210 297"
   version="1.1"
   id="svg8"
   inkscape:version="1.0.2-2 (e86c870879, 2021-01-15)"
   sodipodi:docname="Projet SVG.svg">
  <defs
     id="defs2">
    <inkscape:perspective
       sodipodi:type="inkscape:persp3d"
       inkscape:vp_x="0 : 148.5 : 1"
       inkscape:vp_y="0 : 1000 : 0"
       inkscape:vp_z="210 : 148.5 : 1"
       inkscape:persp3d-origin="105 : 99 : 1"
       id="perspective3987" />
  </defs>
  <sodipodi:namedview
     id="base"
     pagecolor="#ffffff"
     bordercolor="#666666"
     borderopacity="1.0"
     inkscape:pageopacity="0.0"
     inkscape:pageshadow="2"
     inkscape:zoom="0.7"
     inkscape:cx="250.75536"
     inkscape:cy="485.47578"
     inkscape:document-units="mm"
     inkscape:current-layer="layer1"
     showgrid="false"
     inkscape:window-width="1600"
     inkscape:window-height="837"
     inkscape:window-x="-8"
     inkscape:window-y="-8"
     inkscape:window-maximized="1"
     inkscape:snap-global="false"
     inkscape:document-rotation="0" />
  <metadata
     id="metadata5">
    <rdf:RDF>
      <cc:Work
         rdf:about="">
        <dc:format>image/svg+xml</dc:format>
        <dc:type
           rdf:resource="http://purl.org/dc/dcmitype/StillImage" />
        <dc:title />
      </cc:Work>
    </rdf:RDF>
  </metadata>
  <g
     inkscape:label="Calque 1"
     inkscape:groupmode="layer"
     id="layer1">
    <rect
       style="fill:#000000;stroke-width:0.10784163"
       id="rect3815"
       width="68.847206"
       height="39.570522"
       x="64.021881"
       y="188.54521"
       transform="matrix(0.99995721,-0.00925116,0.00101063,0.99999949,0,0)" />
    <ellipse
       style="fill:#000000;stroke-width:0.26458332"
       id="path3750-8"
       cx="189.69273"
       cy="125.10217"
       rx="4.5357141"
       ry="22.300594"
       transform="rotate(7.2620877)" />
    <ellipse
       style="fill:#000000;stroke-width:0.26458332"
       id="path3752-1"
       cx="3.6888161"
       cy="148.75633"
       rx="4.9136906"
       ry="21.166666"
       transform="rotate(-8.5259929)"
       inkscape:transform-center-x="7.5595238"
       inkscape:transform-center-y="-3.0238096" />
    <ellipse
       id="path3746"
       cx="99.02977"
       cy="139.00595"
       rx="72.571434"
       ry="99.785698"
       style="fill:#2b0000;stroke-width:0.2063522" />
    <ellipse
       style="fill:#ffd5d5;stroke-width:0.22123225"
       id="path3750"
       cx="193.99292"
       cy="118.24793"
       rx="3.4017856"
       ry="20.788689"
       transform="rotate(9.4370248)" />
    <ellipse
       style="fill:#ffd5d5;stroke-width:0.21706749"
       id="path3752"
       cx="4.2586513"
       cy="148.23956"
       rx="3.779762"
       ry="18.520832"
       transform="rotate(-8.0385058)" />
    <ellipse
       id="path3746-4"
       cx="99.029785"
       cy="139.00594"
       rx="71.059525"
       ry="98.273796"
       style="fill:#ffd5d5;stroke-width:0.2026386" />
    <rect
       style="fill:#ffffff;stroke-width:0.26458332"
       id="rect3807"
       width="162.52977"
       height="80.130966"
       x="216.95833"
       y="284.90475" />
    <rect
       style="fill:#ffffff;stroke-width:0.21795769"
       id="rect3833"
       width="33.872524"
       height="13.738585"
       x="170.93271"
       y="213.78812"
       transform="matrix(0.93108437,0.36480392,-0.58826114,0.80867103,0,0)"
       inkscape:transform-center-x="2.8601046"
       inkscape:transform-center-y="8.3960838" />
    <ellipse
       style="fill:#000000;stroke-width:0.27157024"
       id="path3882-1"
       cx="68.413696"
       cy="116.32738"
       rx="17.008928"
       ry="10.583334" />
    <ellipse
       style="fill:#ffffff;stroke-width:0.24979024"
       id="path3882"
       cx="68.413689"
       cy="116.32738"
       rx="15.497025"
       ry="9.8273811" />
    <ellipse
       style="fill:#000000;stroke-width:0.27328902"
       id="path3882-15"
       cx="125.86607"
       cy="116.70535"
       rx="16.630953"
       ry="10.961309" />
    <ellipse
       style="fill:#ffffff;stroke-width:0.25454858"
       id="path3882-3"
       cx="125.48813"
       cy="116.70537"
       rx="15.497025"
       ry="10.205358" />
    <ellipse
       style="fill:#000000;stroke-width:0.26458332"
       id="path3929"
       cx="68.791679"
       cy="117.83929"
       rx="1.5119048"
       ry="2.2678571" />
    <ellipse
       style="fill:#000000;stroke-width:0.26458332"
       id="path3929-9"
       cx="123.22023"
       cy="117.83928"
       rx="1.5119048"
       ry="2.2678571" />
    <path
       style="fill:none;stroke:#000000;stroke-width:0.26458332px;stroke-linecap:butt;stroke-linejoin:miter;stroke-opacity:1"
       d="m 113.39286,98.184522 c -0.131,-1.305936 4.80006,-0.510151 5.29166,-0.755952 0.31874,-0.159369 0.43722,-0.596582 0.75595,-0.755952 0.27338,-0.136689 3.25397,0 3.77977,0 0.25198,0 0.57777,0.178179 0.75595,0 0.17818,-0.178181 -0.17818,-0.577773 0,-0.755951 0.17818,-0.178181 0.50397,0 0.75595,0 0.25198,0 0.50397,0 0.75595,0 3.77977,0 7.55953,0 11.33929,0"
       id="path3958"
       inkscape:connector-curvature="0" />
    <path
       style="fill:none;stroke:#000000;stroke-width:0.26458332px;stroke-linecap:butt;stroke-linejoin:miter;stroke-opacity:1"
       d="m 53.672618,95.160713 c 1.007938,0.251983 2.005028,0.552196 3.023809,0.755954 0.494183,0.09883 1.007938,0 1.511906,0 1.007935,0 2.015873,0 3.023809,0 3.275793,0 6.551588,0 9.827381,0 0.356431,0 3.7455,-0.03426 3.779761,0 0.356359,0.356359 -0.356359,1.155544 0,1.511903 0.498041,0.498038 1.013867,-0.498038 1.511906,0 0.178178,0.178181 -0.178181,0.577773 0,0.755952 0.356359,0.356359 1.155544,-0.35636 1.511903,0 0.178181,0.178181 -0.178178,0.577773 0,0.755954 1.007938,1.007935 0.755954,-1.259922 0.755954,0.755951"
       id="path3960"
       inkscape:connector-curvature="0" />
    <path
       style="fill:none;stroke:#000000;stroke-width:0.26458332px;stroke-linecap:butt;stroke-linejoin:miter;stroke-opacity:1"
       d="m 92.982141,128.42262 c -1.511903,34.01786 -1.511903,34.01786 -1.511903,34.01786"
       id="path3962"
       inkscape:connector-curvature="0" />
    <path
       style="fill:none;stroke:#000000;stroke-width:0.26458332px;stroke-linecap:butt;stroke-linejoin:miter;stroke-opacity:1"
       d="m 90.714284,161.68452 6.047621,4.53572"
       id="path3964"
       inkscape:connector-curvature="0" />
    <ellipse
       style="fill:#000000;stroke-width:0.11456795"
       id="path3966"
       cx="103.94347"
       cy="160.17262"
       rx="1.1339287"
       ry="0.7559526" />
    <ellipse
       style="fill:#000000;stroke-width:0.26458332"
       id="path3968"
       cx="97.517853"
       cy="191.54463"
       rx="18.898809"
       ry="10.205358" />
    <ellipse
       style="fill:#ffffff;stroke-width:0.24903545"
       id="path3968-7"
       cx="97.517845"
       cy="191.54465"
       rx="17.386904"
       ry="9.8273821" />
    <rect
       style="fill:#ffd5d5;stroke-width:0.26458332"
       id="rect4003"
       width="40.065475"
       height="17.386906"
       x="77.863091"
       y="174.53571" />
    <rect
       style="fill:#000000;fill-rule:evenodd;stroke-width:0.264583"
       id="rect68"
       width="14.165285"
       height="10.690781"
       x="90.60437"
       y="169.44888" />
  </g>
</svg>
